#N canvas 363 81 951 640 10;
#X obj 87 172 serial_print;
#X msg 84 61 close;
#X msg 14 63 devices;
#X msg 198 76 open \$1;
#X obj 88 146 comport 1 9600;
#X obj 383 64 nbx 5 22 -1e+37 1e+37 0 0 empty empty empty 0 -8 0 16
-262144 -1 -1 0 256;
#X obj 483 -1 r dist;
#X obj 516 235 mtof;
#X msg 349 527 \; pd dsp \$1;
#X obj 349 504 tgl 15 0 empty empty empty 17 7 0 10 -262144 -1 -1 0
1;
#X obj 87 254 change;
#X obj 160 522 spigot;
#X msg 187 441 0;
#X obj 187 409 sel 0;
#X obj 187 469 t f f;
#X obj 162 359 t f f;
#X obj 549 279 vsl 30 70 0 1 0 0 empty empty empty 0 -9 0 10 -257985
-1 -1 4600 1;
#X floatatom 531 167 5 0 0 0 - - -;
#X obj 510 198 + 40;
#X obj 160 593 s dist;
#X obj 483 66 sel 0;
#X msg 449 156 0;
#X floatatom 415 293 12 0 0 0 - - -;
#X obj 15 206 t b b;
#X obj 15 229 timer;
#X floatatom 8 260 12 0 0 0 - - -;
#X msg 137 55 open 3;
#X floatatom 198 47 5 0 0 0 - - -;
#X obj 42 354 nbx 5 22 -1e+37 1e+37 0 0 empty empty empty 0 -8 0 16
-262144 -1 -1 343 256;
#X obj 187 382 < 300;
#N canvas 289 351 450 300 VIDEO 0;
#X obj 223 54 gemhead;
#X obj 295 258 cube;
#X obj 26 95 gemwin;
#X msg 26 67 create \, 1;
#X obj 359 94 r dist;
#X obj 322 210 expr 1.5 - $f1;
#X obj 223 77 alpha;
#X obj 223 100 colourRGB 1 1 1 1;
#X obj 359 117 moses 0.01;
#X obj 395 159 t f f;
#X msg 286 182 1;
#X msg 324 154 0;
#X connect 0 0 6 0;
#X connect 3 0 2 0;
#X connect 4 0 8 0;
#X connect 5 0 1 1;
#X connect 6 0 7 0;
#X connect 7 0 1 0;
#X connect 8 0 11 0;
#X connect 8 1 9 0;
#X connect 9 0 5 0;
#X connect 9 1 10 0;
#X connect 10 0 7 4;
#X connect 11 0 7 4;
#X restore 353 430 pd VIDEO;
#X obj 383 98 vsl 30 70 0 1 0 0 empty empty empty 0 -9 0 10 -260097
-1 -1 0 1;
#X obj 214 322 nbx 5 22 -1e+37 1e+37 0 0 empty empty empty 0 -8 0 16
-262144 -1 -1 42 256;
#X obj 214 349 t f f;
#X obj 160 568 expr $f1/$f2;
#X text 214 302 Distancia Maxima;
#X obj 510 126 * 60;
#N canvas 1 81 801 590 SOM 0;
#X obj 159 117 inlet NOTA;
#X obj 471 245 inlet VOLUME;
#X obj 191 255 * 1.5;
#X obj 159 199 t f f f;
#X obj 142 339 osc~;
#X obj 213 342 osc~;
#X obj 319 353 osc~;
#X obj 142 382 *~ 0.3;
#X obj 213 384 *~ 0.3;
#X obj 284 386 *~ 0.3;
#X obj 252 500 *~ 1;
#X obj 243 539 dac~;
#X obj 323 268 * 6;
#X obj 321 293 / 5;
#X obj 137 292 lop~ 8;
#X obj 206 292 lop~ 8;
#X obj 316 320 lop~ 8;
#X obj 206 292 lop~ 2;
#X connect 0 0 3 0;
#X connect 1 0 10 1;
#X connect 2 0 15 0;
#X connect 3 0 14 0;
#X connect 3 1 2 0;
#X connect 3 2 12 0;
#X connect 4 0 7 0;
#X connect 5 0 8 0;
#X connect 6 0 9 0;
#X connect 7 0 10 0;
#X connect 8 0 10 0;
#X connect 9 0 10 0;
#X connect 10 0 11 1;
#X connect 10 0 11 0;
#X connect 12 0 13 0;
#X connect 13 0 16 0;
#X connect 14 0 4 0;
#X connect 15 0 5 0;
#X connect 16 0 6 0;
#X restore 516 365 pd SOM;
#X connect 0 0 10 0;
#X connect 0 0 23 0;
#X connect 1 0 4 0;
#X connect 2 0 4 0;
#X connect 3 0 4 0;
#X connect 4 0 0 0;
#X connect 5 0 31 0;
#X connect 6 0 5 0;
#X connect 6 0 20 0;
#X connect 7 0 22 0;
#X connect 7 0 37 0;
#X connect 9 0 8 0;
#X connect 10 0 15 0;
#X connect 10 0 28 0;
#X connect 11 0 34 0;
#X connect 12 0 14 0;
#X connect 13 0 12 0;
#X connect 13 1 11 1;
#X connect 14 0 34 0;
#X connect 14 1 11 1;
#X connect 15 0 11 0;
#X connect 15 1 29 0;
#X connect 16 0 37 1;
#X connect 17 0 18 1;
#X connect 18 0 7 0;
#X connect 20 0 21 0;
#X connect 20 1 36 0;
#X connect 21 0 7 0;
#X connect 23 0 24 0;
#X connect 23 1 24 1;
#X connect 24 0 25 0;
#X connect 26 0 4 0;
#X connect 27 0 3 0;
#X connect 29 0 13 0;
#X connect 32 0 33 0;
#X connect 33 0 29 1;
#X connect 33 1 34 1;
#X connect 34 0 19 0;
#X connect 36 0 18 0;
