#N canvas 1 81 450 300 10;
#X obj 163 132 osc~;
#X floatatom 163 86 5 0 0 0 - - -;
#X obj 162 219 *~;
#X obj 161 252 dac~;
#X obj 236 70 vsl 15 128 0 1 0 0 empty empty empty 0 -9 0 10 -257985
-1 -1 0 1;
#X floatatom 250 264 5 0 0 0 - - -;
#X connect 0 0 2 0;
#X connect 1 0 0 0;
#X connect 2 0 3 0;
#X connect 2 0 3 1;
#X connect 4 0 2 1;
#X connect 4 0 5 0;
