#N canvas 1 81 450 300 10;
#X obj 187 182 print;
#X obj 187 144 +;
#X msg 166 90 34;
#X msg 223 88 2;
#X floatatom 239 181 5 0 0 0 - - -;
#X floatatom 242 115 5 0 0 0 - - -;
#X floatatom 133 117 5 0 0 0 - - -;
#X connect 1 0 0 0;
#X connect 1 0 4 0;
#X connect 2 0 1 0;
#X connect 3 0 1 1;
#X connect 5 0 1 1;
#X connect 6 0 1 0;
