#N canvas 363 81 951 640 10;
#X obj 87 192 serial_print;
#X msg 84 81 close;
#X msg 14 83 devices;
#X msg 198 96 open \$1;
#X obj 88 166 comport 1 9600;
#X obj 391 32 nbx 5 22 -1e+37 1e+37 0 0 empty empty empty 0 -8 0 16
-262144 -1 -1 0.202857 256;
#X obj 153 10 tgl 15 0 empty empty empty 17 7 0 10 -262144 -1 -1 0
1;
#X obj 570 314 * 1.5;
#X obj 531 6 r dist;
#X obj 538 258 t f f f;
#X obj 538 202 mtof;
#X obj 521 398 osc~;
#X obj 592 401 osc~;
#X obj 698 412 osc~;
#X obj 521 441 *~ 0.3;
#X obj 592 443 *~ 0.3;
#X obj 663 445 *~ 0.3;
#X msg 647 58 \; pd dsp \$1;
#X obj 652 25 tgl 15 0 empty empty empty 17 7 0 10 -262144 -1 -1 0
1;
#X obj 87 254 change;
#X obj 127 402 spigot;
#X msg 180 341 0;
#X obj 210 319 sel 0;
#X obj 214 374 t f f;
#X obj 130 285 t f f;
#X obj 196 285 < 350;
#X obj 583 532 *~ 1;
#X obj 780 453 vsl 30 70 0 1 0 0 empty empty empty 0 -9 0 10 -257985
-1 -1 0 1;
#X obj 574 571 dac~;
#X floatatom 613 161 5 0 0 0 - - -;
#X obj 532 165 + 40;
#X obj 702 327 * 6;
#X obj 700 352 / 5;
#X obj 148 448 expr $f1/350;
#X obj 128 493 s dist;
#X obj 521 140 * 60;
#X obj 483 66 sel 0;
#X msg 467 156 0;
#X text 252 434 scale 0-350cm to 0 1 numbers;
#X obj 516 351 lop~ 8;
#X obj 585 351 lop~ 8;
#X obj 695 379 lop~ 8;
#X obj 585 351 lop~ 2;
#X obj 1088 40 gemwin;
#X msg 1113 81;
#X floatatom 407 264 12 0 0 0 - - -;
#X obj 34 310 t b b;
#X obj 34 333 timer;
#X floatatom 27 364 12 0 0 0 - - -;
#X msg 137 75 open 3;
#X floatatom 198 67 5 0 0 0 - - -;
#X connect 0 0 19 0;
#X connect 0 0 46 0;
#X connect 1 0 4 0;
#X connect 2 0 4 0;
#X connect 3 0 4 0;
#X connect 4 0 0 0;
#X connect 7 0 40 0;
#X connect 8 0 5 0;
#X connect 8 0 36 0;
#X connect 9 0 39 0;
#X connect 9 1 7 0;
#X connect 9 2 31 0;
#X connect 10 0 9 0;
#X connect 10 0 45 0;
#X connect 11 0 14 0;
#X connect 12 0 15 0;
#X connect 13 0 16 0;
#X connect 14 0 26 0;
#X connect 15 0 26 0;
#X connect 16 0 26 0;
#X connect 18 0 17 0;
#X connect 19 0 24 0;
#X connect 20 0 33 0;
#X connect 21 0 23 0;
#X connect 22 0 21 0;
#X connect 22 1 20 1;
#X connect 23 0 33 0;
#X connect 23 1 20 1;
#X connect 24 0 20 0;
#X connect 24 1 25 0;
#X connect 25 0 22 0;
#X connect 26 0 28 1;
#X connect 26 0 28 0;
#X connect 27 0 26 1;
#X connect 29 0 30 1;
#X connect 30 0 10 0;
#X connect 31 0 32 0;
#X connect 32 0 41 0;
#X connect 33 0 34 0;
#X connect 35 0 30 0;
#X connect 36 0 37 0;
#X connect 36 1 35 0;
#X connect 37 0 10 0;
#X connect 39 0 11 0;
#X connect 40 0 12 0;
#X connect 41 0 13 0;
#X connect 46 0 47 0;
#X connect 46 1 47 1;
#X connect 47 0 48 0;
#X connect 49 0 4 0;
#X connect 50 0 3 0;
